HIERARCHY
ROOT Hips
{
	OFFSET 228.634003 92.561920 -263.051910
	CHANNELS 6 Xposition Yposition Zposition Zrotation Yrotation Xrotation 
	JOINT LeftUpLeg
	{
		OFFSET 0.103458 1.857820 10.548502
		CHANNELS 3 Zrotation Yrotation Xrotation
		JOINT LeftLeg
		{
			OFFSET 43.500000 -0.000023 -0.000011
			CHANNELS 3 Zrotation Yrotation Xrotation
			JOINT LeftFoot
			{
				OFFSET 42.372192 0.000038 0.000002
				CHANNELS 3 Zrotation Yrotation Xrotation
				JOINT LeftToe
				{
					OFFSET 17.299992 -0.000004 0.000006
					CHANNELS 3 Zrotation Yrotation Xrotation
					End Site
					{
						OFFSET 0.000000 0.000000 0.000000
					}
				}
			}
		}
	}
	JOINT RightUpLeg
	{
		OFFSET 0.103461 1.857814 -10.548508
		CHANNELS 3 Zrotation Yrotation Xrotation
		JOINT RightLeg
		{
			OFFSET 43.500042 -0.000015 0.000008
			CHANNELS 3 Zrotation Yrotation Xrotation
			JOINT RightFoot
			{
				OFFSET 42.372253 0.000008 0.000006
				CHANNELS 3 Zrotation Yrotation Xrotation
				JOINT RightToe
				{
					OFFSET 17.299973 -0.000014 0.000011
					CHANNELS 3 Zrotation Yrotation Xrotation
					End Site
					{
						OFFSET 0.000000 0.000000 0.000000
					}
				}
			}
		}
	}
	JOINT Spine
	{
		OFFSET 6.901966 -2.603737 -0.000007
		CHANNELS 3 Zrotation Yrotation Xrotation
		JOINT Spine1
		{
			OFFSET 12.588102 0.000017 0.000001
			CHANNELS 3 Zrotation Yrotation Xrotation
			JOINT Spine2
			{
				OFFSET 12.343197 -0.000013 0.000000
				CHANNELS 3 Zrotation Yrotation Xrotation
				JOINT Neck
				{
					OFFSET 25.832905 -0.000008 0.000000
					CHANNELS 3 Zrotation Yrotation Xrotation
					JOINT Head
					{
						OFFSET 11.766610 0.000009 -0.000002
						CHANNELS 3 Zrotation Yrotation Xrotation
						End Site
						{
							OFFSET 0.000000 0.000000 0.000000
						}
					}
				}
				JOINT LeftShoulder
				{
					OFFSET 19.745903 -1.480377 6.000115
					CHANNELS 3 Zrotation Yrotation Xrotation
					JOINT LeftArm
					{
						OFFSET 11.284125 -0.000014 -0.000024
						CHANNELS 3 Zrotation Yrotation Xrotation
						JOINT LeftForeArm
						{
							OFFSET 33.000046 -0.000012 0.000029
							CHANNELS 3 Zrotation Yrotation Xrotation
							JOINT LeftHand
							{
								OFFSET 25.199989 0.000034 0.000012
								CHANNELS 3 Zrotation Yrotation Xrotation
								End Site
								{
									OFFSET 0.000000 0.000000 0.000000
								}
							}
						}
					}
				}
				JOINT RightShoulder
				{
					OFFSET 19.746098 -1.480362 -6.000071
					CHANNELS 3 Zrotation Yrotation Xrotation
					JOINT RightArm
					{
						OFFSET 11.284137 -0.000006 -0.000008
						CHANNELS 3 Zrotation Yrotation Xrotation
						JOINT RightForeArm
						{
							OFFSET 33.000095 0.000017 0.000000
							CHANNELS 3 Zrotation Yrotation Xrotation
							JOINT RightHand
							{
								OFFSET 25.199778 0.000144 0.000423
								CHANNELS 3 Zrotation Yrotation Xrotation
								End Site
								{
									OFFSET 0.000000 0.000000 0.000000
								}
							}
						}
					}
				}
			}
		}
	}
}
MOTION
Frames: 13
Frame Time: 0.033333
113.260902 90.154533 -388.869995 92.018105 -6.38877 -97.249401 178.10878 -4.641807 179.408879 -22.484973 -6.228959 -11.026742 81.64858 7.162172 -2.646517 21.454558 0.003099 1.7e-05 157.3782 9.792201 -172.520238 -52.582071 3.663496 -1.920191 69.913871 4.467227 9.186379 21.454553 -0.003099 -1e-06 10.347142 -1.152448 -0.998294 10.703687 -2.207461 -2.099357 10.385571 -2.220236 -2.085995 5.731145 9.196951 18.579059 -16.209304 -11.901566 24.556712 -157.921337 -71.140177 -24.101991 -22.731945 52.176413 5.343764 -45.677727 -22.104359 2.11579 3.01632 -7.708668 16.180515 -165.469788 73.22876 16.358513 -10.183672 -57.513806 -25.351646 -23.608105 12.423305 -0.95651 16.856704 -7.421607 -43.744285 
114.149101 90.290154 -389.343506 92.250611 -6.085337 -95.96411 178.317675 -5.483399 -179.866762 -21.78769 -6.169021 -10.635262 81.308184 6.819675 -2.975128 21.454558 0.00311 1.7e-05 159.304231 9.015603 -173.966817 -46.773853 3.219386 1.439372 70.227527 1.549609 7.913531 21.454555 -0.003097 2e-06 10.247312 -1.136153 -1.00318 10.503744 -2.176398 -2.105758 10.185623 -2.18922 -2.092576 6.335321 8.804051 18.038443 -15.920961 -10.869689 23.527217 -157.623895 -71.064874 -24.4095 -22.90486 51.828708 5.988626 -48.636848 -22.020815 2.204921 2.296592 -8.780697 14.61454 -165.06861 73.183196 16.770633 -6.096272 -56.552293 -30.961627 -23.543686 12.523781 -0.962033 19.099647 -13.268282 -52.238735 
115.026299 90.319511 -389.822296 92.190902 -6.142704 -94.636704 178.779887 -6.031811 -178.643898 -21.129383 -6.345237 -10.509491 81.092111 6.665597 -3.302302 21.454558 0.003114 2e-05 162.062043 8.336184 -177.541916 -40.415916 3.894067 4.153055 71.228621 -0.80255 7.043843 21.454551 -0.003095 2e-06 10.24897 -1.197632 -0.986273 10.508092 -2.300602 -2.0777 10.189934 -2.313247 -2.063773 6.741156 8.633801 17.23527 -15.024659 -9.799166 22.183145 -157.838623 -71.17691 -24.186311 -23.329606 51.13236 7.089226 -50.309381 -21.759159 2.243039 2.280721 -11.086897 12.948204 -164.785841 73.412663 17.05932 -4.34519 -55.782459 -34.215798 -22.40802 12.265573 -0.929633 19.635216 -18.695867 -52.771134 
115.855103 90.279663 -390.223907 91.836907 -6.392083 -93.292201 179.231732 -6.262797 -177.097639 -20.65322 -6.628529 -10.567168 80.991714 6.640482 -3.64217 21.454558 0.00312 1.9e-05 165.331586 8.015698 178.672489 -34.205526 4.634179 5.285398 71.443745 -1.679668 6.958641 21.454557 -0.003106 -2e-06 10.304981 -1.286442 -0.920984 10.620823 -2.482783 -1.956658 10.302598 -2.49467 -1.941636 7.326758 7.64568 15.85494 -13.553509 -8.151511 19.919968 -158.648916 -71.330848 -23.349929 -24.687563 50.279355 8.305209 -49.394869 -21.666893 2.206136 2.959937 -13.901782 10.171595 -164.867366 73.93815 16.971917 -3.84801 -55.200486 -34.102212 -21.604291 11.5576 -0.873568 21.375866 -22.774473 -49.725406 
116.684601 90.128487 -390.555298 91.203618 -6.70192 -92.113803 179.414945 -6.132901 -175.009951 -20.713894 -6.960654 -11.024341 81.07272 6.840658 -4.221107 21.45456 0.003109 1.7e-05 168.451221 7.924203 176.154062 -29.456844 4.771253 4.773 70.988191 -0.978548 7.886907 21.45455 -0.003086 0.0 10.367355 -1.409556 -0.791411 10.74545 -2.739348 -1.710858 10.4271 -2.749791 -1.694278 8.86807 6.0132 13.970761 -12.24521 -5.616556 16.836988 -159.511418 -71.426587 -22.46078 -26.357973 49.698546 8.492388 -46.826524 -21.628825 2.12011 4.365435 -14.87044 9.061813 -166.49597 74.590331 15.29932 -4.239603 -54.577159 -33.456135 -21.533059 11.308148 -0.856608 22.299861 -23.618208 -46.982727 
117.506203 90.011299 -390.704895 90.646999 -6.713085 -91.081693 178.984902 -6.298204 -174.478275 -21.34821 -7.205941 -10.598105 81.185514 6.5039 -4.486792 21.454562 0.003122 1.9e-05 170.47032 7.655395 175.224296 -27.340211 4.833749 4.597536 72.675036 -1.188059 7.164205 21.454557 -0.003105 -1e-06 10.415535 -1.475894 -0.57883 10.838037 -2.890941 -1.293842 10.519578 -2.898831 -1.276361 10.364605 4.476113 11.555152 -9.438836 -3.560417 13.378747 -160.656923 -71.379056 -21.282699 -27.828981 49.453899 7.162651 -44.043529 -21.512697 2.026492 5.230712 -13.445523 10.00591 -168.001275 75.227396 13.756228 -5.711703 -53.98225 -32.15095 -22.702844 11.754618 -0.900823 22.8805 -21.839846 -47.654967 
118.393303 89.897301 -390.657501 90.293004 -6.410303 -90.10779 177.820273 -6.66409 -174.404864 -22.629429 -7.23377 -9.890654 81.437117 5.955663 -4.830334 21.45456 0.003103 1.7e-05 171.563396 7.231706 178.017802 -26.240226 3.637511 3.900853 75.577197 -1.077422 6.30978 21.454553 -0.003089 -1e-06 10.473105 -1.46555 -0.363909 10.947791 -2.889956 -0.865231 10.629297 -2.895272 -0.84776 12.281439 2.862876 9.179411 -6.98174 -1.44733 10.096168 -160.932603 -71.127862 -21.002296 -28.904975 49.26749 6.372799 -41.643202 -21.334958 1.944684 6.369028 -12.373513 11.337954 -170.980768 75.737946 10.70869 -8.895387 -52.877911 -29.994584 -23.420768 11.938453 -0.922685 20.104197 -17.485433 -48.180141 
119.290901 90.046623 -390.30481 90.741297 -5.815194 -88.947115 175.981012 -7.591702 -173.931573 -24.061283 -6.901403 -9.238189 81.190308 5.365989 -5.476373 21.454557 0.003114 1.9e-05 171.867244 6.298801 -178.118998 -24.675351 2.487891 2.825982 75.22922 -0.402676 5.829979 21.45455 -0.003092 -2e-06 10.657598 -1.223847 -0.157151 11.309471 -2.426358 -0.433367 10.99106 -2.429064 -0.418711 13.370581 1.502616 6.916625 -5.450148 0.395443 7.159756 -161.81561 -70.863513 -20.096416 -29.525197 49.195971 4.724019 -40.02385 -21.012478 1.878435 6.941885 -8.601045 8.011336 -175.385078 76.541067 6.213669 -13.163371 -51.637934 -26.885271 -24.550111 12.290779 -0.961919 16.53115 -11.289715 -49.988409 
120.323402 90.009842 -389.566498 91.258526 -5.031311 -87.635507 172.759827 -8.508619 -173.823957 -27.1232 -6.23486 -8.159212 80.711512 4.462783 -6.069699 21.454558 0.003112 1.8e-05 170.918258 5.265498 -176.036596 -24.571957 2.008853 2.630703 74.922633 -0.37048 5.361329 21.454555 -0.003096 1e-06 10.991876 -0.911447 0.057575 11.972266 -1.823866 0.020425 11.653988 -1.823849 0.031433 13.896622 0.882544 4.967139 -5.173082 1.668641 4.782263 -162.892512 -70.71174 -18.98881 -30.443444 49.13995 3.340137 -38.850789 -20.623763 1.821548 7.866188 -7.217939 5.539002 179.279283 77.542578 0.784966 -17.502732 -49.952551 -24.381402 -26.469623 13.208157 -1.051286 13.961293 -5.21733 -50.166712 
121.456299 89.789574 -388.629486 91.971598 -3.979316 -86.058027 167.940951 -9.282003 -174.023002 -32.055741 -4.806316 -6.549745 79.644596 3.121063 -6.609169 21.454558 0.003093 1.6e-05 169.205396 4.3188 -176.241065 -25.122401 2.954048 3.702622 75.054941 -1.312434 4.831083 21.454551 -0.003075 1e-06 11.392551 -0.507249 0.199471 12.771252 -1.033369 0.341679 12.453097 -1.031429 0.347898 13.771604 1.045178 3.277117 -5.664784 2.022844 2.939564 -164.504888 -70.936364 -17.325506 -30.732849 49.261186 3.737161 -37.931397 -20.442133 1.785731 7.774496 -7.530252 2.774743 171.565118 78.220631 -7.054003 -21.082827 -47.161469 -22.503074 -29.216964 14.278208 -1.168472 11.830145 0.332351 -48.664753 
122.535797 89.472923 -387.517212 92.569895 -2.367789 -84.1124 161.449648 -9.592193 -173.362031 -38.035305 -4.005311 -5.743109 77.011414 2.361766 -6.716023 21.454562 0.003095 1.7e-05 166.479167 4.034499 -174.782464 -26.464179 3.778052 4.032156 75.40339 -1.792359 4.063518 21.454548 -0.003082 1e-06 11.740579 -0.124842 0.228563 13.467823 -0.275426 0.441018 13.149729 -0.272889 0.442664 13.197195 2.117681 2.037511 -6.603845 2.068928 1.68901 -166.484017 -71.931311 -15.282407 -30.682268 50.112323 4.05157 -37.424625 -20.337284 1.765959 7.408045 -7.944564 1.762841 164.420767 78.662435 -14.301836 -24.347055 -43.549757 -20.526868 -33.205275 14.813439 -1.283263 10.908878 4.876005 -46.583611 
123.592796 89.087479 -386.386597 93.071504 -0.938457 -82.725899 155.451895 -9.900418 -173.732774 -43.449405 -3.657691 -5.539297 74.354163 2.388555 -5.605817 21.454558 0.003111 1.8e-05 163.449541 3.674494 -174.09767 -28.377134 4.290811 4.552043 75.756579 -2.328185 3.530855 21.454553 -0.003103 -2e-06 12.166323 0.155856 0.324126 14.320645 0.270375 0.66505 14.00256 0.274256 0.663384 12.551203 3.988877 1.101639 -7.589599 1.229906 1.058627 -168.799683 -72.820069 -12.899986 -30.857825 50.55036 4.187457 -36.873777 -20.003442 1.730441 7.188979 -8.253864 2.68 157.781987 78.825813 -21.0345 -27.735745 -39.506726 -18.970535 -36.268185 15.482403 -1.39595 8.555996 8.690349 -41.931552 
124.530998 88.697311 -385.230011 93.033911 0.073758 -82.049717 150.983613 -9.758192 -174.686159 -47.335403 -3.721528 -5.702445 72.822569 2.589839 -5.11392 21.45456 0.003102 1.9e-05 160.623291 3.9086 -173.713253 -30.558164 4.845588 4.666472 76.060065 -2.62746 2.796164 21.454551 -0.00309 1e-06 12.78488 0.310839 0.431195 15.559309 0.560834 0.900291 15.241241 0.566126 0.896872 11.74056 5.594543 0.474381 -9.023155 0.162207 0.840957 -172.263313 -73.369892 -9.345305 -31.073748 50.279413 4.887286 -36.449766 -19.57635 1.692268 7.080567 -9.603319 5.151156 149.452271 79.419555 -29.443976 -31.583819 -35.989862 -15.242341 -37.732011 15.435881 -1.428421 4.520056 13.425098 -36.793949 
